<?xml version="1.0" encoding="UTF-8" standalone="no"?>
<!-- This is a Stata 18.0 generated SVG file (http://www.stata.com) -->

<svg version="1.1" width="8.578in" height="8.314in" viewBox="0 0 6176 5986" xmlns="http://www.w3.org/2000/svg" xmlns:xlink="http://www.w3.org/1999/xlink">
	<desc>Stata Graph - Graph</desc>
	<rect x="0" y="0" width="6176" height="5986" style="fill:#FFFFFF;stroke:none"/>
	<rect x="0.00" y="0.00" width="6175.81" height="5986.00" style="fill:#FFFFFF"/>
	<rect x="2.88" y="2.88" width="6170.05" height="5980.24" style="fill:none;stroke:#FFFFFF;stroke-width:5.76"/>
	<rect x="39.95" y="39.95" width="6095.91" height="5906.09" style="fill:#FFFFFF"/>
	<rect x="42.83" y="42.83" width="6090.15" height="5900.33" style="fill:none;stroke:#FFFFFF;stroke-width:5.76"/>
	<rect x="39.95" y="214.63" width="6095.91" height="5621.40" style="fill:#FFFFFF"/>
	<rect x="42.83" y="217.51" width="6090.15" height="5615.65" style="fill:none;stroke:#FFFFFF;stroke-width:5.76"/>
	<rect x="79.90" y="254.58" width="6016.00" height="5541.50" style="fill:#FFFFFF"/>
	<rect x="82.78" y="257.46" width="6010.24" height="5535.74" style="fill:none;stroke:#FFFFFF;stroke-width:5.76"/>
	<text x="99.97" y="881.81" style="font-family:'Helvetica';font-size:110.01px;fill:#000000">Jackson et al. (intensive)</text>
	<text x="99.97" y="1064.79" style="font-family:'Helvetica';font-size:110.01px;fill:#000000">Jackson et al. (non-intensive)</text>
	<text x="99.97" y="2133.87" style="font-family:'Helvetica';font-size:110.01px;fill:#000000">Taguchi et al.</text>
	<text x="99.97" y="3202.95" style="font-family:'Helvetica';font-size:110.01px;fill:#000000">Kizub et al.</text>
	<text x="99.97" y="3385.92" style="font-family:'Helvetica';font-size:110.01px;fill:#000000">Rugani et al.</text>
	<text x="99.97" y="3569.09" style="font-family:'Helvetica';font-size:110.01px;fill:#000000">Jackson et al. (intensive)</text>
	<text x="99.97" y="3752.06" style="font-family:'Helvetica';font-size:110.01px;fill:#000000">Jackson et al. (non-intensive)</text>
	<text x="99.97" y="698.84" style="font-family:'Helvetica';font-weight:bold;font-size:110.01px;fill:#000000">Clodronate</text>
	<text x="99.97" y="1950.89" style="font-family:'Helvetica';font-weight:bold;font-size:110.01px;fill:#000000">Minodronic acid</text>
	<text x="99.97" y="3019.97" style="font-family:'Helvetica';font-weight:bold;font-size:110.01px;fill:#000000">Zoledronic acid</text>
	<text x="99.97" y="4652.64" style="font-family:'Helvetica';font-weight:bold;font-size:110.01px;fill:#000000">Total</text>
	<text x="99.97" y="1247.76" style="fill:#000000">
		<tspan style="font-family:'Helvetica';font-size:110.01px">Heterogeneity: τ</tspan>
		<tspan dy="-57.63px" style="font-family:'Helvetica';font-size:64.14px">2</tspan>
		<tspan dy="57.63px" style="font-family:'Helvetica';font-size:110.01px"> = 0.00, I</tspan>
		<tspan dy="-57.63px" style="font-family:'Helvetica';font-size:64.14px">2</tspan>
		<tspan dy="57.63px" style="font-family:'Helvetica';font-size:110.01px"> = 0.01%, H</tspan>
		<tspan dy="-57.63px" style="font-family:'Helvetica';font-size:64.14px">2</tspan>
		<tspan dy="57.63px" style="font-family:'Helvetica';font-size:110.01px"> = 1.00</tspan>
	</text>
	<text x="99.97" y="2316.84" style="fill:#000000">
		<tspan style="font-family:'Helvetica';font-size:110.01px">Heterogeneity: τ</tspan>
		<tspan dy="-57.63px" style="font-family:'Helvetica';font-size:64.14px">2</tspan>
		<tspan dy="57.63px" style="font-family:'Helvetica';font-size:110.01px"> = 0.00, I</tspan>
		<tspan dy="-57.63px" style="font-family:'Helvetica';font-size:64.14px">2</tspan>
		<tspan dy="57.63px" style="font-family:'Helvetica';font-size:110.01px"> = .%, H</tspan>
		<tspan dy="-57.63px" style="font-family:'Helvetica';font-size:64.14px">2</tspan>
		<tspan dy="57.63px" style="font-family:'Helvetica';font-size:110.01px"> = .</tspan>
	</text>
	<text x="99.97" y="3935.03" style="fill:#000000">
		<tspan style="font-family:'Helvetica';font-size:110.01px">Heterogeneity: τ</tspan>
		<tspan dy="-57.63px" style="font-family:'Helvetica';font-size:64.14px">2</tspan>
		<tspan dy="57.63px" style="font-family:'Helvetica';font-size:110.01px"> = 0.00, I</tspan>
		<tspan dy="-57.63px" style="font-family:'Helvetica';font-size:64.14px">2</tspan>
		<tspan dy="57.63px" style="font-family:'Helvetica';font-size:110.01px"> = 79.83%, H</tspan>
		<tspan dy="-57.63px" style="font-family:'Helvetica';font-size:64.14px">2</tspan>
		<tspan dy="57.63px" style="font-family:'Helvetica';font-size:110.01px"> = 4.96</tspan>
	</text>
	<text x="99.97" y="4835.61" style="fill:#000000">
		<tspan style="font-family:'Helvetica';font-size:110.01px">Heterogeneity: τ</tspan>
		<tspan dy="-57.63px" style="font-family:'Helvetica';font-size:64.14px">2</tspan>
		<tspan dy="57.63px" style="font-family:'Helvetica';font-size:110.01px"> = 0.00, I</tspan>
		<tspan dy="-57.63px" style="font-family:'Helvetica';font-size:64.14px">2</tspan>
		<tspan dy="57.63px" style="font-family:'Helvetica';font-size:110.01px"> = 91.88%, H</tspan>
		<tspan dy="-57.63px" style="font-family:'Helvetica';font-size:64.14px">2</tspan>
		<tspan dy="57.63px" style="font-family:'Helvetica';font-size:110.01px"> = 12.32</tspan>
	</text>
	<text x="99.97" y="1430.73" style="fill:#000000">
		<tspan style="font-family:'Helvetica';font-size:110.01px">Test of θ</tspan>
		<tspan dy="15.72px" style="font-family:'Helvetica';font-size:64.14px">i</tspan>
		<tspan dy="-15.72px" style="font-family:'Helvetica';font-size:110.01px"> = θ</tspan>
		<tspan dy="15.72px" style="font-family:'Helvetica';font-size:64.14px">j</tspan>
		<tspan dy="-15.72px" style="font-family:'Helvetica';font-size:110.01px">: Q(1) = 0.02, p = 0.88</tspan>
	</text>
	<text x="99.97" y="2499.81" style="fill:#000000">
		<tspan style="font-family:'Helvetica';font-size:110.01px">Test of θ</tspan>
		<tspan dy="15.72px" style="font-family:'Helvetica';font-size:64.14px">i</tspan>
		<tspan dy="-15.72px" style="font-family:'Helvetica';font-size:110.01px"> = θ</tspan>
		<tspan dy="15.72px" style="font-family:'Helvetica';font-size:64.14px">j</tspan>
		<tspan dy="-15.72px" style="font-family:'Helvetica';font-size:110.01px">: Q(0) = 0.00, p = .</tspan>
	</text>
	<text x="99.97" y="4118.00" style="fill:#000000">
		<tspan style="font-family:'Helvetica';font-size:110.01px">Test of θ</tspan>
		<tspan dy="15.72px" style="font-family:'Helvetica';font-size:64.14px">i</tspan>
		<tspan dy="-15.72px" style="font-family:'Helvetica';font-size:110.01px"> = θ</tspan>
		<tspan dy="15.72px" style="font-family:'Helvetica';font-size:64.14px">j</tspan>
		<tspan dy="-15.72px" style="font-family:'Helvetica';font-size:110.01px">: Q(3) = 18.10, p = 0.00</tspan>
	</text>
	<text x="99.97" y="5018.59" style="fill:#000000">
		<tspan style="font-family:'Helvetica';font-size:110.01px">Test of θ</tspan>
		<tspan dy="15.72px" style="font-family:'Helvetica';font-size:64.14px">i</tspan>
		<tspan dy="-15.72px" style="font-family:'Helvetica';font-size:110.01px"> = θ</tspan>
		<tspan dy="15.72px" style="font-family:'Helvetica';font-size:64.14px">j</tspan>
		<tspan dy="-15.72px" style="font-family:'Helvetica';font-size:110.01px">: Q(6) = 30.07, p = 0.00</tspan>
	</text>
	<text x="99.97" y="1613.71" style="font-family:'Helvetica';font-size:110.01px;fill:#000000">Test of θ = 0: z = 2.24, p = 0.03</text>
	<text x="99.97" y="2682.98" style="font-family:'Helvetica';font-size:110.01px;fill:#000000">Test of θ = 0: z = 4.27, p = 0.00</text>
	<text x="99.97" y="4300.98" style="font-family:'Helvetica';font-size:110.01px;fill:#000000">Test of θ = 0: z = 3.20, p = 0.00</text>
	<text x="99.97" y="5201.56" style="font-family:'Helvetica';font-size:110.01px;fill:#000000">Test of θ = 0: z = 3.09, p = 0.00</text>
	<text x="99.97" y="5437.61" style="fill:#000000">
		<tspan style="font-family:'Helvetica';font-size:110.01px">Test of group differences: Q</tspan>
		<tspan dy="15.72px" style="font-family:'Helvetica';font-size:64.14px">b</tspan>
		<tspan dy="-15.72px" style="font-family:'Helvetica';font-size:110.01px">(2) = 8.73, p = 0.01</tspan>
	</text>
	<text x="99.97" y="501.34" style="font-family:'Helvetica';font-size:110.01px;fill:#000000">Study</text>
	<line x1="2652.21" y1="5495.95" x2="2652.21" y2="563.20" style="stroke:#000000;stroke-width:5.76"/>
	<line x1="3067.16" y1="5495.95" x2="3067.16" y2="5489.97" style="stroke:#303030;stroke-width:8.64"/>
	<line x1="3067.16" y1="5448.08" x2="3067.16" y2="5442.10" style="stroke:#303030;stroke-width:8.64"/>
	<line x1="3067.16" y1="5400.22" x2="3067.16" y2="5394.23" style="stroke:#303030;stroke-width:8.64"/>
	<line x1="3067.16" y1="5352.35" x2="3067.16" y2="5346.37" style="stroke:#303030;stroke-width:8.64"/>
	<line x1="3067.16" y1="5304.48" x2="3067.16" y2="5298.50" style="stroke:#303030;stroke-width:8.64"/>
	<line x1="3067.16" y1="5256.62" x2="3067.16" y2="5250.63" style="stroke:#303030;stroke-width:8.64"/>
	<line x1="3067.16" y1="5208.56" x2="3067.16" y2="5202.57" style="stroke:#303030;stroke-width:8.64"/>
	<line x1="3067.16" y1="5160.69" x2="3067.16" y2="5154.71" style="stroke:#303030;stroke-width:8.64"/>
	<line x1="3067.16" y1="5112.82" x2="3067.16" y2="5106.84" style="stroke:#303030;stroke-width:8.64"/>
	<line x1="3067.16" y1="5064.96" x2="3067.16" y2="5058.97" style="stroke:#303030;stroke-width:8.64"/>
	<line x1="3067.16" y1="5017.09" x2="3067.16" y2="5011.11" style="stroke:#303030;stroke-width:8.64"/>
	<line x1="3067.16" y1="4969.23" x2="3067.16" y2="4963.24" style="stroke:#303030;stroke-width:8.64"/>
	<line x1="3067.16" y1="4921.36" x2="3067.16" y2="4915.38" style="stroke:#303030;stroke-width:8.64"/>
	<line x1="3067.16" y1="4873.49" x2="3067.16" y2="4867.51" style="stroke:#303030;stroke-width:8.64"/>
	<line x1="3067.16" y1="4825.43" x2="3067.16" y2="4819.45" style="stroke:#303030;stroke-width:8.64"/>
	<line x1="3067.16" y1="4777.57" x2="3067.16" y2="4771.58" style="stroke:#303030;stroke-width:8.64"/>
	<line x1="3067.16" y1="4729.70" x2="3067.16" y2="4723.72" style="stroke:#303030;stroke-width:8.64"/>
	<line x1="3067.16" y1="4681.83" x2="3067.16" y2="4675.85" style="stroke:#303030;stroke-width:8.64"/>
	<line x1="3067.16" y1="4633.97" x2="3067.16" y2="4627.98" style="stroke:#303030;stroke-width:8.64"/>
	<line x1="3067.16" y1="4586.10" x2="3067.16" y2="4580.12" style="stroke:#303030;stroke-width:8.64"/>
	<line x1="3067.16" y1="4538.23" x2="3067.16" y2="4532.25" style="stroke:#303030;stroke-width:8.64"/>
	<line x1="3067.16" y1="4490.37" x2="3067.16" y2="4484.39" style="stroke:#303030;stroke-width:8.64"/>
	<line x1="3067.16" y1="4442.31" x2="3067.16" y2="4436.33" style="stroke:#303030;stroke-width:8.64"/>
	<line x1="3067.16" y1="4394.44" x2="3067.16" y2="4388.46" style="stroke:#303030;stroke-width:8.64"/>
	<line x1="3067.16" y1="4346.58" x2="3067.16" y2="4340.59" style="stroke:#303030;stroke-width:8.64"/>
	<line x1="3067.16" y1="4298.71" x2="3067.16" y2="4292.73" style="stroke:#303030;stroke-width:8.64"/>
	<line x1="3067.16" y1="4250.84" x2="3067.16" y2="4244.86" style="stroke:#303030;stroke-width:8.64"/>
	<line x1="3067.16" y1="4202.98" x2="3067.16" y2="4196.99" style="stroke:#303030;stroke-width:8.64"/>
	<line x1="3067.16" y1="4155.11" x2="3067.16" y2="4149.13" style="stroke:#303030;stroke-width:8.64"/>
	<line x1="3067.16" y1="4107.24" x2="3067.16" y2="4101.26" style="stroke:#303030;stroke-width:8.64"/>
	<line x1="3067.16" y1="4059.19" x2="3067.16" y2="4053.20" style="stroke:#303030;stroke-width:8.64"/>
	<line x1="3067.16" y1="4011.32" x2="3067.16" y2="4005.34" style="stroke:#303030;stroke-width:8.64"/>
	<line x1="3067.16" y1="3963.45" x2="3067.16" y2="3957.47" style="stroke:#303030;stroke-width:8.64"/>
	<line x1="3067.16" y1="3915.59" x2="3067.16" y2="3909.60" style="stroke:#303030;stroke-width:8.64"/>
	<line x1="3067.16" y1="3867.72" x2="3067.16" y2="3861.74" style="stroke:#303030;stroke-width:8.64"/>
	<line x1="3067.16" y1="3819.85" x2="3067.16" y2="3813.87" style="stroke:#303030;stroke-width:8.64"/>
	<line x1="3067.16" y1="3771.99" x2="3067.16" y2="3766.00" style="stroke:#303030;stroke-width:8.64"/>
	<line x1="3067.16" y1="3724.12" x2="3067.16" y2="3718.14" style="stroke:#303030;stroke-width:8.64"/>
	<line x1="3067.16" y1="3676.06" x2="3067.16" y2="3670.08" style="stroke:#303030;stroke-width:8.64"/>
	<line x1="3067.16" y1="3628.19" x2="3067.16" y2="3622.21" style="stroke:#303030;stroke-width:8.64"/>
	<line x1="3067.16" y1="3580.33" x2="3067.16" y2="3574.34" style="stroke:#303030;stroke-width:8.64"/>
	<line x1="3067.16" y1="3532.46" x2="3067.16" y2="3526.48" style="stroke:#303030;stroke-width:8.64"/>
	<line x1="3067.16" y1="3484.60" x2="3067.16" y2="3478.61" style="stroke:#303030;stroke-width:8.64"/>
	<line x1="3067.16" y1="3436.73" x2="3067.16" y2="3430.75" style="stroke:#303030;stroke-width:8.64"/>
	<line x1="3067.16" y1="3388.86" x2="3067.16" y2="3382.88" style="stroke:#303030;stroke-width:8.64"/>
	<line x1="3067.16" y1="3341.00" x2="3067.16" y2="3335.01" style="stroke:#303030;stroke-width:8.64"/>
	<line x1="3067.16" y1="3293.13" x2="3067.16" y2="3286.95" style="stroke:#303030;stroke-width:8.64"/>
	<line x1="3067.16" y1="3245.07" x2="3067.16" y2="3239.09" style="stroke:#303030;stroke-width:8.64"/>
	<line x1="3067.16" y1="3197.20" x2="3067.16" y2="3191.22" style="stroke:#303030;stroke-width:8.64"/>
	<line x1="3067.16" y1="3149.34" x2="3067.16" y2="3143.35" style="stroke:#303030;stroke-width:8.64"/>
	<line x1="3067.16" y1="3101.47" x2="3067.16" y2="3095.49" style="stroke:#303030;stroke-width:8.64"/>
	<line x1="3067.16" y1="3053.61" x2="3067.16" y2="3047.62" style="stroke:#303030;stroke-width:8.64"/>
	<line x1="3067.16" y1="3005.74" x2="3067.16" y2="2999.76" style="stroke:#303030;stroke-width:8.64"/>
	<line x1="3067.16" y1="2957.87" x2="3067.16" y2="2951.89" style="stroke:#303030;stroke-width:8.64"/>
	<line x1="3067.16" y1="2910.01" x2="3067.16" y2="2904.02" style="stroke:#303030;stroke-width:8.64"/>
	<line x1="3067.16" y1="2861.95" x2="3067.16" y2="2855.96" style="stroke:#303030;stroke-width:8.64"/>
	<line x1="3067.16" y1="2814.08" x2="3067.16" y2="2808.10" style="stroke:#303030;stroke-width:8.64"/>
	<line x1="3067.16" y1="2766.21" x2="3067.16" y2="2760.23" style="stroke:#303030;stroke-width:8.64"/>
	<line x1="3067.16" y1="2718.35" x2="3067.16" y2="2712.36" style="stroke:#303030;stroke-width:8.64"/>
	<line x1="3067.16" y1="2670.48" x2="3067.16" y2="2664.50" style="stroke:#303030;stroke-width:8.64"/>
	<line x1="3067.16" y1="2622.61" x2="3067.16" y2="2616.63" style="stroke:#303030;stroke-width:8.64"/>
	<line x1="3067.16" y1="2574.75" x2="3067.16" y2="2568.76" style="stroke:#303030;stroke-width:8.64"/>
	<line x1="3067.16" y1="2526.88" x2="3067.16" y2="2520.90" style="stroke:#303030;stroke-width:8.64"/>
	<line x1="3067.16" y1="2478.82" x2="3067.16" y2="2472.84" style="stroke:#303030;stroke-width:8.64"/>
	<line x1="3067.16" y1="2430.96" x2="3067.16" y2="2424.97" style="stroke:#303030;stroke-width:8.64"/>
	<line x1="3067.16" y1="2383.09" x2="3067.16" y2="2377.11" style="stroke:#303030;stroke-width:8.64"/>
	<line x1="3067.16" y1="2335.22" x2="3067.16" y2="2329.24" style="stroke:#303030;stroke-width:8.64"/>
	<line x1="3067.16" y1="2287.36" x2="3067.16" y2="2281.37" style="stroke:#303030;stroke-width:8.64"/>
	<line x1="3067.16" y1="2239.49" x2="3067.16" y2="2233.51" style="stroke:#303030;stroke-width:8.64"/>
	<line x1="3067.16" y1="2191.62" x2="3067.16" y2="2185.64" style="stroke:#303030;stroke-width:8.64"/>
	<line x1="3067.16" y1="2143.76" x2="3067.16" y2="2137.77" style="stroke:#303030;stroke-width:8.64"/>
	<line x1="3067.16" y1="2095.70" x2="3067.16" y2="2089.72" style="stroke:#303030;stroke-width:8.64"/>
	<line x1="3067.16" y1="2047.83" x2="3067.16" y2="2041.85" style="stroke:#303030;stroke-width:8.64"/>
	<line x1="3067.16" y1="1999.97" x2="3067.16" y2="1993.98" style="stroke:#303030;stroke-width:8.64"/>
	<line x1="3067.16" y1="1952.10" x2="3067.16" y2="1946.12" style="stroke:#303030;stroke-width:8.64"/>
	<line x1="3067.16" y1="1904.23" x2="3067.16" y2="1898.25" style="stroke:#303030;stroke-width:8.64"/>
	<line x1="3067.16" y1="1856.37" x2="3067.16" y2="1850.38" style="stroke:#303030;stroke-width:8.64"/>
	<line x1="3067.16" y1="1808.50" x2="3067.16" y2="1802.52" style="stroke:#303030;stroke-width:8.64"/>
	<line x1="3067.16" y1="1760.63" x2="3067.16" y2="1754.65" style="stroke:#303030;stroke-width:8.64"/>
	<line x1="3067.16" y1="1712.57" x2="3067.16" y2="1706.59" style="stroke:#303030;stroke-width:8.64"/>
	<line x1="3067.16" y1="1664.71" x2="3067.16" y2="1658.72" style="stroke:#303030;stroke-width:8.64"/>
	<line x1="3067.16" y1="1616.84" x2="3067.16" y2="1610.86" style="stroke:#303030;stroke-width:8.64"/>
	<line x1="3067.16" y1="1568.98" x2="3067.16" y2="1562.99" style="stroke:#303030;stroke-width:8.64"/>
	<line x1="3067.16" y1="1521.11" x2="3067.16" y2="1515.13" style="stroke:#303030;stroke-width:8.64"/>
	<line x1="3067.16" y1="1473.24" x2="3067.16" y2="1467.26" style="stroke:#303030;stroke-width:8.64"/>
	<line x1="3067.16" y1="1425.38" x2="3067.16" y2="1419.39" style="stroke:#303030;stroke-width:8.64"/>
	<line x1="3067.16" y1="1377.51" x2="3067.16" y2="1371.53" style="stroke:#303030;stroke-width:8.64"/>
	<line x1="3067.16" y1="1329.45" x2="3067.16" y2="1323.47" style="stroke:#303030;stroke-width:8.64"/>
	<line x1="3067.16" y1="1281.58" x2="3067.16" y2="1275.60" style="stroke:#303030;stroke-width:8.64"/>
	<line x1="3067.16" y1="1233.72" x2="3067.16" y2="1227.73" style="stroke:#303030;stroke-width:8.64"/>
	<line x1="3067.16" y1="1185.85" x2="3067.16" y2="1179.87" style="stroke:#303030;stroke-width:8.64"/>
	<line x1="3067.16" y1="1137.98" x2="3067.16" y2="1132.00" style="stroke:#303030;stroke-width:8.64"/>
	<line x1="3067.16" y1="1090.12" x2="3067.16" y2="1084.13" style="stroke:#303030;stroke-width:8.64"/>
	<line x1="3067.16" y1="1042.25" x2="3067.16" y2="1036.27" style="stroke:#303030;stroke-width:8.64"/>
	<line x1="3067.16" y1="994.39" x2="3067.16" y2="988.40" style="stroke:#303030;stroke-width:8.64"/>
	<line x1="3067.16" y1="946.33" x2="3067.16" y2="940.34" style="stroke:#303030;stroke-width:8.64"/>
	<line x1="3067.16" y1="898.46" x2="3067.16" y2="892.48" style="stroke:#303030;stroke-width:8.64"/>
	<line x1="3067.16" y1="850.59" x2="3067.16" y2="844.61" style="stroke:#303030;stroke-width:8.64"/>
	<line x1="3067.16" y1="802.73" x2="3067.16" y2="796.74" style="stroke:#303030;stroke-width:8.64"/>
	<line x1="3067.16" y1="754.86" x2="3067.16" y2="748.88" style="stroke:#303030;stroke-width:8.64"/>
	<line x1="3067.16" y1="706.99" x2="3067.16" y2="701.01" style="stroke:#303030;stroke-width:8.64"/>
	<line x1="3067.16" y1="659.13" x2="3067.16" y2="653.14" style="stroke:#303030;stroke-width:8.64"/>
	<line x1="3067.16" y1="611.26" x2="3067.16" y2="605.28" style="stroke:#303030;stroke-width:8.64"/>
	<line x1="3067.16" y1="563.20" x2="3067.16" y2="563.20" style="stroke:#303030;stroke-width:8.64"/>
	<line x1="2746.78" y1="2095.31" x2="2703.35" y2="2095.31" style="stroke:#606060;stroke-width:8.64"/>
	<line x1="2756.23" y1="3164.39" x2="2718.02" y2="3164.39" style="stroke:#606060;stroke-width:8.64"/>
	<line x1="3516.65" y1="3347.37" x2="2799.47" y2="3347.37" style="stroke:#606060;stroke-width:8.64"/>
	<line x1="2981.08" y1="3530.53" x2="2846.36" y2="3530.53" style="stroke:#606060;stroke-width:8.64"/>
	<line x1="2924.92" y1="3713.50" x2="2784.41" y2="3713.50" style="stroke:#606060;stroke-width:8.64"/>
	<line x1="2703.35" y1="2095.31" x2="2703.35" y2="2095.31" stroke-linecap="round" style="stroke:#606060;stroke-width:8.64"/>
	<line x1="2703.35" y1="2095.31" x2="2703.35" y2="2095.31" stroke-linecap="round" style="stroke:#606060;stroke-width:8.64"/>
	<line x1="2718.02" y1="3164.39" x2="2718.02" y2="3164.39" stroke-linecap="round" style="stroke:#606060;stroke-width:8.64"/>
	<line x1="2718.02" y1="3164.39" x2="2718.02" y2="3164.39" stroke-linecap="round" style="stroke:#606060;stroke-width:8.64"/>
	<line x1="2799.47" y1="3347.37" x2="2799.47" y2="3347.37" stroke-linecap="round" style="stroke:#606060;stroke-width:8.64"/>
	<line x1="2799.47" y1="3347.37" x2="2799.47" y2="3347.37" stroke-linecap="round" style="stroke:#606060;stroke-width:8.64"/>
	<line x1="2846.36" y1="3530.53" x2="2846.36" y2="3530.53" stroke-linecap="round" style="stroke:#606060;stroke-width:8.64"/>
	<line x1="2846.36" y1="3530.53" x2="2846.36" y2="3530.53" stroke-linecap="round" style="stroke:#606060;stroke-width:8.64"/>
	<line x1="2784.41" y1="3713.50" x2="2784.41" y2="3713.50" stroke-linecap="round" style="stroke:#606060;stroke-width:8.64"/>
	<line x1="2784.41" y1="3713.50" x2="2784.41" y2="3713.50" stroke-linecap="round" style="stroke:#606060;stroke-width:8.64"/>
	<line x1="2696.98" y1="843.26" x2="2652.21" y2="843.26" style="stroke:#606060;stroke-width:8.64"/>
	<line x1="2691.39" y1="1026.23" x2="2652.21" y2="1026.23" style="stroke:#606060;stroke-width:8.64"/>
	<line x1="2652.21" y1="843.26" x2="2707.02" y2="813.34" stroke-linecap="round" style="stroke:#606060;stroke-width:8.64"/>
	<line x1="2652.21" y1="843.26" x2="2707.02" y2="873.18" stroke-linecap="round" style="stroke:#606060;stroke-width:8.64"/>
	<line x1="2652.21" y1="1026.23" x2="2707.02" y2="996.32" stroke-linecap="round" style="stroke:#606060;stroke-width:8.64"/>
	<line x1="2652.21" y1="1026.23" x2="2707.02" y2="1056.15" stroke-linecap="round" style="stroke:#606060;stroke-width:8.64"/>
	<line x1="2696.98" y1="843.26" x2="2747.36" y2="843.26" style="stroke:#606060;stroke-width:8.64"/>
	<line x1="2691.39" y1="1026.23" x2="2745.62" y2="1026.23" style="stroke:#606060;stroke-width:8.64"/>
	<line x1="2746.78" y1="2095.31" x2="2790.20" y2="2095.31" style="stroke:#606060;stroke-width:8.64"/>
	<line x1="2756.23" y1="3164.39" x2="2794.64" y2="3164.39" style="stroke:#606060;stroke-width:8.64"/>
	<line x1="3516.65" y1="3347.37" x2="4233.84" y2="3347.37" style="stroke:#606060;stroke-width:8.64"/>
	<line x1="2981.08" y1="3530.53" x2="3115.79" y2="3530.53" style="stroke:#606060;stroke-width:8.64"/>
	<line x1="2924.92" y1="3713.50" x2="3065.42" y2="3713.50" style="stroke:#606060;stroke-width:8.64"/>
	<line x1="2747.36" y1="843.26" x2="2747.36" y2="843.26" stroke-linecap="round" style="stroke:#606060;stroke-width:8.64"/>
	<line x1="2747.36" y1="843.26" x2="2747.36" y2="843.26" stroke-linecap="round" style="stroke:#606060;stroke-width:8.64"/>
	<line x1="2745.62" y1="1026.23" x2="2745.62" y2="1026.23" stroke-linecap="round" style="stroke:#606060;stroke-width:8.64"/>
	<line x1="2745.62" y1="1026.23" x2="2745.62" y2="1026.23" stroke-linecap="round" style="stroke:#606060;stroke-width:8.64"/>
	<line x1="2790.20" y1="2095.31" x2="2790.20" y2="2095.31" stroke-linecap="round" style="stroke:#606060;stroke-width:8.64"/>
	<line x1="2790.20" y1="2095.31" x2="2790.20" y2="2095.31" stroke-linecap="round" style="stroke:#606060;stroke-width:8.64"/>
	<line x1="2794.64" y1="3164.39" x2="2794.64" y2="3164.39" stroke-linecap="round" style="stroke:#606060;stroke-width:8.64"/>
	<line x1="2794.64" y1="3164.39" x2="2794.64" y2="3164.39" stroke-linecap="round" style="stroke:#606060;stroke-width:8.64"/>
	<line x1="4233.84" y1="3347.37" x2="4233.84" y2="3347.37" stroke-linecap="round" style="stroke:#606060;stroke-width:8.64"/>
	<line x1="4233.84" y1="3347.37" x2="4233.84" y2="3347.37" stroke-linecap="round" style="stroke:#606060;stroke-width:8.64"/>
	<line x1="3115.79" y1="3530.53" x2="3115.79" y2="3530.53" stroke-linecap="round" style="stroke:#606060;stroke-width:8.64"/>
	<line x1="3115.79" y1="3530.53" x2="3115.79" y2="3530.53" stroke-linecap="round" style="stroke:#606060;stroke-width:8.64"/>
	<line x1="3065.42" y1="3713.50" x2="3065.42" y2="3713.50" stroke-linecap="round" style="stroke:#606060;stroke-width:8.64"/>
	<line x1="3065.42" y1="3713.50" x2="3065.42" y2="3713.50" stroke-linecap="round" style="stroke:#606060;stroke-width:8.64"/>
	<rect x="2638.04" y="784.51" width="117.49" height="117.50" style="fill:#606060"/>
	<rect x="2642.36" y="788.83" width="108.85" height="108.86" style="fill:none;stroke:#606060;stroke-width:8.64"/>
	<rect x="2632.83" y="967.87" width="116.72" height="116.72" style="fill:#606060"/>
	<rect x="2637.15" y="972.19" width="108.08" height="108.09" style="fill:none;stroke:#606060;stroke-width:8.64"/>
	<rect x="2687.64" y="2036.37" width="118.26" height="118.27" style="fill:#606060"/>
	<rect x="2691.96" y="2040.69" width="109.62" height="109.63" style="fill:none;stroke:#606060;stroke-width:8.64"/>
	<rect x="2696.91" y="3105.26" width="118.65" height="118.65" style="fill:#606060"/>
	<rect x="2701.23" y="3109.58" width="110.01" height="110.02" style="fill:none;stroke:#606060;stroke-width:8.64"/>
	<rect x="3496.51" y="3327.61" width="39.91" height="39.91" style="fill:#606060"/>
	<rect x="3500.83" y="3331.92" width="31.27" height="31.27" style="fill:none;stroke:#606060;stroke-width:8.64"/>
	<rect x="2929.67" y="3479.12" width="102.82" height="102.83" style="fill:#606060"/>
	<rect x="2933.99" y="3483.44" width="94.18" height="94.19" style="fill:none;stroke:#606060;stroke-width:8.64"/>
	<rect x="2873.89" y="3662.67" width="101.67" height="101.67" style="fill:#606060"/>
	<rect x="2878.21" y="3666.99" width="93.03" height="93.03" style="fill:none;stroke:#606060;stroke-width:8.64"/>
	<defs>
		<path id="path_KjKwXjzA" d="M2924.72 3713.50 M2657.42 1209.21 L2694.28 1262.28 L2731.34 1209.21 L2694.28 1156.32 Z" stroke-linejoin="round"/>
	</defs>
	<defs>
		<clipPath id="clipPath_fkcLoCvP">
			<use xlink:href="#path_KjKwXjzA"/>
		</clipPath>
	</defs>
	<use xlink:href="#path_KjKwXjzA" style="stroke:none;fill:#A0A0A0"/>
	<use xlink:href="#path_KjKwXjzA" style="fill:none;stroke:#A0A0A0;stroke-width:17.28" clip-path="url(#clipPath_fkcLoCvP)"/>
	<defs>
		<path id="path_irqKwhuR" d="M2731.34 1156.32 M2703.35 2278.29 L2746.78 2331.36 L2790.20 2278.29 L2746.78 2225.40 Z" stroke-linejoin="round"/>
	</defs>
	<defs>
		<clipPath id="clipPath_NOGtPSqi">
			<use xlink:href="#path_irqKwhuR"/>
		</clipPath>
	</defs>
	<use xlink:href="#path_irqKwhuR" style="stroke:none;fill:#A0A0A0"/>
	<use xlink:href="#path_irqKwhuR" style="fill:none;stroke:#A0A0A0;stroke-width:17.28" clip-path="url(#clipPath_NOGtPSqi)"/>
	<defs>
		<path id="path_NODrXtrd" d="M2790.20 2225.40 M2749.29 3896.48 L2902.53 3949.36 L3055.77 3896.48 L2902.53 3843.40 Z" stroke-linejoin="round"/>
	</defs>
	<defs>
		<clipPath id="clipPath_ahzjvppd">
			<use xlink:href="#path_NODrXtrd"/>
		</clipPath>
	</defs>
	<use xlink:href="#path_NODrXtrd" style="stroke:none;fill:#A0A0A0"/>
	<use xlink:href="#path_NODrXtrd" style="fill:none;stroke:#A0A0A0;stroke-width:17.28" clip-path="url(#clipPath_ahzjvppd)"/>
	<defs>
		<path id="path_igyKkUra" d="M3055.77 3843.40 M2704.70 4614.09 L2795.80 4666.97 L2886.89 4614.09 L2795.80 4561.01 Z" stroke-linejoin="round"/>
	</defs>
	<defs>
		<clipPath id="clipPath_MeKshtKV">
			<use xlink:href="#path_igyKkUra"/>
		</clipPath>
	</defs>
	<use xlink:href="#path_igyKkUra" style="stroke:none;fill:#808080"/>
	<use xlink:href="#path_igyKkUra" style="fill:none;stroke:#808080;stroke-width:17.28" clip-path="url(#clipPath_MeKshtKV)"/>
	<line x1="2652.21" y1="5495.95" x2="4312.01" y2="5495.95" style="stroke:#000000;stroke-width:5.76"/>
	<line x1="2652.21" y1="5495.95" x2="2652.21" y2="5536.09" style="stroke:#000000;stroke-width:5.76"/>
	<text x="2652.21" y="5632.89" style="font-family:'Helvetica';font-size:110.01px;fill:#000000" text-anchor="middle">0</text>
	<line x1="3067.16" y1="5495.95" x2="3067.16" y2="5536.09" style="stroke:#000000;stroke-width:5.76"/>
	<text x="3067.16" y="5632.89" style="font-family:'Helvetica';font-size:110.01px;fill:#000000" text-anchor="middle">.05</text>
	<line x1="3482.11" y1="5495.95" x2="3482.11" y2="5536.09" style="stroke:#000000;stroke-width:5.76"/>
	<text x="3482.11" y="5632.89" style="font-family:'Helvetica';font-size:110.01px;fill:#000000" text-anchor="middle">.1</text>
	<line x1="3897.06" y1="5495.95" x2="3897.06" y2="5536.09" style="stroke:#000000;stroke-width:5.76"/>
	<text x="3897.06" y="5632.89" style="font-family:'Helvetica';font-size:110.01px;fill:#000000" text-anchor="middle">.15</text>
	<line x1="4312.01" y1="5495.95" x2="4312.01" y2="5536.09" style="stroke:#000000;stroke-width:5.76"/>
	<text x="4312.01" y="5632.89" style="font-family:'Helvetica';font-size:110.01px;fill:#000000" text-anchor="middle">.2</text>
	<text x="3482.11" y="5745.92" style="font-family:'Helvetica';font-size:99.97px;fill:#000000" text-anchor="middle">Absolute Risk</text>
	<text x="4985.19" y="501.34" style="font-family:'Helvetica';font-size:110.01px;fill:#000000" text-anchor="middle">with 95% CI</text>
	<text x="4985.19" y="351.37" style="font-family:'Helvetica';font-size:110.01px;fill:#000000" text-anchor="middle">Effect size</text>
	<text x="4749.34" y="881.81" style="font-family:'Helvetica';font-size:110.01px;fill:#000000" text-anchor="end">0.0054 [</text>
	<text x="4749.34" y="1064.79" style="font-family:'Helvetica';font-size:110.01px;fill:#000000" text-anchor="end">0.0047 [</text>
	<text x="4749.34" y="2133.87" style="font-family:'Helvetica';font-size:110.01px;fill:#000000" text-anchor="end">0.0114 [</text>
	<text x="4749.34" y="3202.95" style="font-family:'Helvetica';font-size:110.01px;fill:#000000" text-anchor="end">0.0126 [</text>
	<text x="4749.34" y="3385.92" style="font-family:'Helvetica';font-size:110.01px;fill:#000000" text-anchor="end">0.1042 [</text>
	<text x="4749.34" y="3569.09" style="font-family:'Helvetica';font-size:110.01px;fill:#000000" text-anchor="end">0.0396 [</text>
	<text x="4749.34" y="3752.06" style="font-family:'Helvetica';font-size:110.01px;fill:#000000" text-anchor="end">0.0329 [</text>
	<text x="4749.34" y="1247.76" style="font-family:'Helvetica';font-size:110.01px;fill:#000000" text-anchor="end">0.0051 [</text>
	<text x="4749.34" y="2316.84" style="font-family:'Helvetica';font-size:110.01px;fill:#000000" text-anchor="end">0.0114 [</text>
	<text x="4749.34" y="3935.03" style="font-family:'Helvetica';font-size:110.01px;fill:#000000" text-anchor="end">0.0302 [</text>
	<text x="4749.34" y="4652.64" style="font-family:'Helvetica';font-size:110.01px;fill:#000000" text-anchor="end">0.0173 [</text>
	<text x="5193.05" y="881.81" style="font-family:'Helvetica';font-size:110.01px;fill:#000000" text-anchor="end">-0.0007,</text>
	<text x="5193.05" y="1064.79" style="font-family:'Helvetica';font-size:110.01px;fill:#000000" text-anchor="end">-0.0018,</text>
	<text x="5193.05" y="2133.87" style="font-family:'Helvetica';font-size:110.01px;fill:#000000" text-anchor="end">0.0062,</text>
	<text x="5193.05" y="3202.95" style="font-family:'Helvetica';font-size:110.01px;fill:#000000" text-anchor="end">0.0079,</text>
	<text x="5193.05" y="3385.92" style="font-family:'Helvetica';font-size:110.01px;fill:#000000" text-anchor="end">0.0177,</text>
	<text x="5193.05" y="3569.09" style="font-family:'Helvetica';font-size:110.01px;fill:#000000" text-anchor="end">0.0234,</text>
	<text x="5193.05" y="3752.06" style="font-family:'Helvetica';font-size:110.01px;fill:#000000" text-anchor="end">0.0159,</text>
	<text x="5193.05" y="1247.76" style="font-family:'Helvetica';font-size:110.01px;fill:#000000" text-anchor="end">0.0006,</text>
	<text x="5193.05" y="2316.84" style="font-family:'Helvetica';font-size:110.01px;fill:#000000" text-anchor="end">0.0062,</text>
	<text x="5193.05" y="3935.03" style="font-family:'Helvetica';font-size:110.01px;fill:#000000" text-anchor="end">0.0117,</text>
	<text x="5193.05" y="4652.64" style="font-family:'Helvetica';font-size:110.01px;fill:#000000" text-anchor="end">0.0063,</text>
	<text x="5618.42" y="881.81" style="font-family:'Helvetica';font-size:110.01px;fill:#000000" text-anchor="end">0.0115]</text>
	<text x="5618.42" y="1064.79" style="font-family:'Helvetica';font-size:110.01px;fill:#000000" text-anchor="end">0.0113]</text>
	<text x="5618.42" y="2133.87" style="font-family:'Helvetica';font-size:110.01px;fill:#000000" text-anchor="end">0.0166]</text>
	<text x="5618.42" y="3202.95" style="font-family:'Helvetica';font-size:110.01px;fill:#000000" text-anchor="end">0.0172]</text>
	<text x="5618.42" y="3385.92" style="font-family:'Helvetica';font-size:110.01px;fill:#000000" text-anchor="end">0.1906]</text>
	<text x="5618.42" y="3569.09" style="font-family:'Helvetica';font-size:110.01px;fill:#000000" text-anchor="end">0.0559]</text>
	<text x="5618.42" y="3752.06" style="font-family:'Helvetica';font-size:110.01px;fill:#000000" text-anchor="end">0.0498]</text>
	<text x="5618.42" y="1247.76" style="font-family:'Helvetica';font-size:110.01px;fill:#000000" text-anchor="end">0.0095]</text>
	<text x="5618.42" y="2316.84" style="font-family:'Helvetica';font-size:110.01px;fill:#000000" text-anchor="end">0.0166]</text>
	<text x="5618.42" y="3935.03" style="font-family:'Helvetica';font-size:110.01px;fill:#000000" text-anchor="end">0.0486]</text>
	<text x="5618.42" y="4652.64" style="font-family:'Helvetica';font-size:110.01px;fill:#000000" text-anchor="end">0.0283]</text>
	<text x="6001.72" y="881.81" style="font-family:'Helvetica';font-size:110.01px;fill:#000000" text-anchor="end">17.89</text>
	<text x="6001.72" y="1064.79" style="font-family:'Helvetica';font-size:110.01px;fill:#000000" text-anchor="end">17.74</text>
	<text x="6001.72" y="2133.87" style="font-family:'Helvetica';font-size:110.01px;fill:#000000" text-anchor="end">18.15</text>
	<text x="6001.72" y="3202.95" style="font-family:'Helvetica';font-size:110.01px;fill:#000000" text-anchor="end">18.32</text>
	<text x="6001.72" y="3385.92" style="font-family:'Helvetica';font-size:110.01px;fill:#000000" text-anchor="end">1.48</text>
	<text x="6001.72" y="3569.09" style="font-family:'Helvetica';font-size:110.01px;fill:#000000" text-anchor="end">13.38</text>
	<text x="6001.72" y="3752.06" style="font-family:'Helvetica';font-size:110.01px;fill:#000000" text-anchor="end">13.05</text>
	<text x="5877.24" y="501.34" style="font-family:'Helvetica';font-size:110.01px;fill:#000000" text-anchor="middle">(%)</text>
	<text x="5877.24" y="351.37" style="font-family:'Helvetica';font-size:110.01px;fill:#000000" text-anchor="middle">Weight</text>
	<line x1="79.90" y1="558.76" x2="6095.91" y2="558.76" style="stroke:#000000;stroke-width:8.64"/>
	<text x="39.95" y="5929.59" style="font-family:'Helvetica';font-size:110.01px;fill:#000000">Random-effects REML model</text>
	<text x="3088.00" y="155.18" style="font-family:'Helvetica';font-size:139.93px;fill:#000000" text-anchor="middle">Figure 1 Risk of osteonecrosis of the jaw</text>
</svg>
