<?xml version="1.0" encoding="UTF-8" standalone="no"?>
<!-- This is a Stata 18.0 generated SVG file (http://www.stata.com) -->

<svg version="1.1" width="8.578in" height="6.814in" viewBox="0 0 6176 4906" xmlns="http://www.w3.org/2000/svg" xmlns:xlink="http://www.w3.org/1999/xlink">
	<desc>Stata Graph - Graph</desc>
	<rect x="0" y="0" width="6176" height="4906" style="fill:#FFFFFF;stroke:none"/>
	<rect x="0.00" y="0.00" width="6176.00" height="4906.00" style="fill:#FFFFFF"/>
	<rect x="2.88" y="2.88" width="6170.24" height="4900.24" style="fill:none;stroke:#FFFFFF;stroke-width:5.76"/>
	<rect x="39.95" y="39.95" width="6095.91" height="4826.10" style="fill:#FFFFFF"/>
	<rect x="42.83" y="42.83" width="6090.15" height="4820.34" style="fill:none;stroke:#FFFFFF;stroke-width:5.76"/>
	<rect x="39.95" y="214.62" width="6095.91" height="4541.41" style="fill:#FFFFFF"/>
	<rect x="42.83" y="217.50" width="6090.15" height="4535.65" style="fill:none;stroke:#FFFFFF;stroke-width:5.76"/>
	<rect x="79.90" y="254.57" width="6016.00" height="4461.51" style="fill:#FFFFFF"/>
	<rect x="82.78" y="257.45" width="6010.24" height="4455.75" style="fill:none;stroke:#FFFFFF;stroke-width:5.76"/>
	<text x="99.97" y="879.09" style="font-family:'Helvetica';font-size:110.01px;fill:#000000">Camus et al., 2024</text>
	<text x="99.97" y="1060.13" style="font-family:'Helvetica';font-size:110.01px;fill:#000000">Sykorova et al., 2024</text>
	<text x="99.97" y="1241.36" style="font-family:'Helvetica';font-size:110.01px;fill:#000000">Banerjee et al., 2023</text>
	<text x="99.97" y="1422.40" style="font-family:'Helvetica';font-size:110.01px;fill:#000000">Lacoboni et al., 2021</text>
	<text x="99.97" y="1603.44" style="font-family:'Helvetica';font-size:110.01px;fill:#000000">Wang et al., 2022</text>
	<text x="99.97" y="1784.67" style="font-family:'Helvetica';font-size:110.01px;fill:#000000">Locke et al., 2022</text>
	<text x="99.97" y="1965.71" style="font-family:'Helvetica';font-size:110.01px;fill:#000000">Herbaux et al., 2021</text>
	<text x="99.97" y="2146.94" style="font-family:'Helvetica';font-size:110.01px;fill:#000000">Romancik et al., 2021</text>
	<text x="99.97" y="2327.98" style="font-family:'Helvetica';font-size:110.01px;fill:#000000">Ahmed et al., 2024</text>
	<text x="99.97" y="2509.02" style="font-family:'Helvetica';font-size:110.01px;fill:#000000">O'Reilly et al., 2024</text>
	<text x="99.97" y="2690.25" style="font-family:'Helvetica';font-size:110.01px;fill:#000000">Wang et al., 2023</text>
	<text x="99.97" y="698.05" style="font-family:'Helvetica';font-weight:bold;font-size:110.01px;fill:#000000">B-cell lymphoma</text>
	<text x="99.97" y="3581.55" style="font-family:'Helvetica';font-weight:bold;font-size:110.01px;fill:#000000">Total</text>
	<text x="99.97" y="2871.29" style="fill:#000000">
		<tspan style="font-family:'Helvetica';font-size:110.01px">Heterogeneity: τ</tspan>
		<tspan dy="-57.63px" style="font-family:'Helvetica';font-size:64.14px">2</tspan>
		<tspan dy="57.63px" style="font-family:'Helvetica';font-size:110.01px"> = 0.03, I</tspan>
		<tspan dy="-57.63px" style="font-family:'Helvetica';font-size:64.14px">2</tspan>
		<tspan dy="57.63px" style="font-family:'Helvetica';font-size:110.01px"> = 90.15%, H</tspan>
		<tspan dy="-57.63px" style="font-family:'Helvetica';font-size:64.14px">2</tspan>
		<tspan dy="57.63px" style="font-family:'Helvetica';font-size:110.01px"> = 10.15</tspan>
	</text>
	<text x="99.97" y="3762.59" style="fill:#000000">
		<tspan style="font-family:'Helvetica';font-size:110.01px">Heterogeneity: τ</tspan>
		<tspan dy="-57.63px" style="font-family:'Helvetica';font-size:64.14px">2</tspan>
		<tspan dy="57.63px" style="font-family:'Helvetica';font-size:110.01px"> = 0.03, I</tspan>
		<tspan dy="-57.63px" style="font-family:'Helvetica';font-size:64.14px">2</tspan>
		<tspan dy="57.63px" style="font-family:'Helvetica';font-size:110.01px"> = 90.15%, H</tspan>
		<tspan dy="-57.63px" style="font-family:'Helvetica';font-size:64.14px">2</tspan>
		<tspan dy="57.63px" style="font-family:'Helvetica';font-size:110.01px"> = 10.15</tspan>
	</text>
	<text x="99.97" y="3052.33" style="fill:#000000">
		<tspan style="font-family:'Helvetica';font-size:110.01px">Test of θ</tspan>
		<tspan dy="15.72px" style="font-family:'Helvetica';font-size:64.14px">i</tspan>
		<tspan dy="-15.72px" style="font-family:'Helvetica';font-size:110.01px"> = θ</tspan>
		<tspan dy="15.72px" style="font-family:'Helvetica';font-size:64.14px">j</tspan>
		<tspan dy="-15.72px" style="font-family:'Helvetica';font-size:110.01px">: Q(10) = 79.81, p = 0.00</tspan>
	</text>
	<text x="99.97" y="3943.63" style="fill:#000000">
		<tspan style="font-family:'Helvetica';font-size:110.01px">Test of θ</tspan>
		<tspan dy="15.72px" style="font-family:'Helvetica';font-size:64.14px">i</tspan>
		<tspan dy="-15.72px" style="font-family:'Helvetica';font-size:110.01px"> = θ</tspan>
		<tspan dy="15.72px" style="font-family:'Helvetica';font-size:64.14px">j</tspan>
		<tspan dy="-15.72px" style="font-family:'Helvetica';font-size:110.01px">: Q(10) = 79.81, p = 0.00</tspan>
	</text>
	<text x="99.97" y="3233.56" style="font-family:'Helvetica';font-size:110.01px;fill:#000000">Test of θ = 0: z = 10.74, p = 0.00</text>
	<text x="99.97" y="4124.86" style="font-family:'Helvetica';font-size:110.01px;fill:#000000">Test of θ = 0: z = 10.74, p = 0.00</text>
	<text x="99.97" y="4358.40" style="fill:#000000">
		<tspan style="font-family:'Helvetica';font-size:110.01px">Test of group differences: Q</tspan>
		<tspan dy="15.72px" style="font-family:'Helvetica';font-size:64.14px">b</tspan>
		<tspan dy="-15.72px" style="font-family:'Helvetica';font-size:110.01px">(0) = -0.00, p = .</tspan>
	</text>
	<text x="99.97" y="501.33" style="font-family:'Helvetica';font-size:110.01px;fill:#000000">Study</text>
	<line x1="2652.21" y1="4415.96" x2="2652.21" y2="563.19" style="stroke:#000000;stroke-width:5.76"/>
	<line x1="3482.11" y1="4415.96" x2="3482.11" y2="4411.13" style="stroke:#303030;stroke-width:8.64"/>
	<line x1="3482.11" y1="4376.78" x2="3482.11" y2="4371.76" style="stroke:#303030;stroke-width:8.64"/>
	<line x1="3482.11" y1="4337.60" x2="3482.11" y2="4332.58" style="stroke:#303030;stroke-width:8.64"/>
	<line x1="3482.11" y1="4298.23" x2="3482.11" y2="4293.40" style="stroke:#303030;stroke-width:8.64"/>
	<line x1="3482.11" y1="4259.05" x2="3482.11" y2="4254.03" style="stroke:#303030;stroke-width:8.64"/>
	<line x1="3482.11" y1="4219.87" x2="3482.11" y2="4214.85" style="stroke:#303030;stroke-width:8.64"/>
	<line x1="3482.11" y1="4180.49" x2="3482.11" y2="4175.67" style="stroke:#303030;stroke-width:8.64"/>
	<line x1="3482.11" y1="4141.31" x2="3482.11" y2="4136.30" style="stroke:#303030;stroke-width:8.64"/>
	<line x1="3482.11" y1="4102.13" x2="3482.11" y2="4097.12" style="stroke:#303030;stroke-width:8.64"/>
	<line x1="3482.11" y1="4062.76" x2="3482.11" y2="4057.94" style="stroke:#303030;stroke-width:8.64"/>
	<line x1="3482.11" y1="4023.58" x2="3482.11" y2="4018.56" style="stroke:#303030;stroke-width:8.64"/>
	<line x1="3482.11" y1="3984.40" x2="3482.11" y2="3979.38" style="stroke:#303030;stroke-width:8.64"/>
	<line x1="3482.11" y1="3945.03" x2="3482.11" y2="3940.20" style="stroke:#303030;stroke-width:8.64"/>
	<line x1="3482.11" y1="3905.85" x2="3482.11" y2="3900.83" style="stroke:#303030;stroke-width:8.64"/>
	<line x1="3482.11" y1="3866.67" x2="3482.11" y2="3861.65" style="stroke:#303030;stroke-width:8.64"/>
	<line x1="3482.11" y1="3827.29" x2="3482.11" y2="3822.47" style="stroke:#303030;stroke-width:8.64"/>
	<line x1="3482.11" y1="3788.11" x2="3482.11" y2="3783.10" style="stroke:#303030;stroke-width:8.64"/>
	<line x1="3482.11" y1="3748.93" x2="3482.11" y2="3743.92" style="stroke:#303030;stroke-width:8.64"/>
	<line x1="3482.11" y1="3709.56" x2="3482.11" y2="3704.74" style="stroke:#303030;stroke-width:8.64"/>
	<line x1="3482.11" y1="3670.38" x2="3482.11" y2="3665.36" style="stroke:#303030;stroke-width:8.64"/>
	<line x1="3482.11" y1="3631.20" x2="3482.11" y2="3626.18" style="stroke:#303030;stroke-width:8.64"/>
	<line x1="3482.11" y1="3591.83" x2="3482.11" y2="3587.00" style="stroke:#303030;stroke-width:8.64"/>
	<line x1="3482.11" y1="3552.65" x2="3482.11" y2="3547.63" style="stroke:#303030;stroke-width:8.64"/>
	<line x1="3482.11" y1="3513.47" x2="3482.11" y2="3508.45" style="stroke:#303030;stroke-width:8.64"/>
	<line x1="3482.11" y1="3474.09" x2="3482.11" y2="3469.27" style="stroke:#303030;stroke-width:8.64"/>
	<line x1="3482.11" y1="3434.91" x2="3482.11" y2="3429.90" style="stroke:#303030;stroke-width:8.64"/>
	<line x1="3482.11" y1="3395.73" x2="3482.11" y2="3390.72" style="stroke:#303030;stroke-width:8.64"/>
	<line x1="3482.11" y1="3356.36" x2="3482.11" y2="3351.54" style="stroke:#303030;stroke-width:8.64"/>
	<line x1="3482.11" y1="3317.18" x2="3482.11" y2="3312.36" style="stroke:#303030;stroke-width:8.64"/>
	<line x1="3482.11" y1="3278.00" x2="3482.11" y2="3272.98" style="stroke:#303030;stroke-width:8.64"/>
	<line x1="3482.11" y1="3238.63" x2="3482.11" y2="3233.80" style="stroke:#303030;stroke-width:8.64"/>
	<line x1="3482.11" y1="3199.45" x2="3482.11" y2="3194.62" style="stroke:#303030;stroke-width:8.64"/>
	<line x1="3482.11" y1="3160.27" x2="3482.11" y2="3155.25" style="stroke:#303030;stroke-width:8.64"/>
	<line x1="3482.11" y1="3121.09" x2="3482.11" y2="3116.07" style="stroke:#303030;stroke-width:8.64"/>
	<line x1="3482.11" y1="3081.71" x2="3482.11" y2="3076.89" style="stroke:#303030;stroke-width:8.64"/>
	<line x1="3482.11" y1="3042.53" x2="3482.11" y2="3037.52" style="stroke:#303030;stroke-width:8.64"/>
	<line x1="3482.11" y1="3003.35" x2="3482.11" y2="2998.34" style="stroke:#303030;stroke-width:8.64"/>
	<line x1="3482.11" y1="2963.98" x2="3482.11" y2="2959.16" style="stroke:#303030;stroke-width:8.64"/>
	<line x1="3482.11" y1="2924.80" x2="3482.11" y2="2919.78" style="stroke:#303030;stroke-width:8.64"/>
	<line x1="3482.11" y1="2885.62" x2="3482.11" y2="2880.60" style="stroke:#303030;stroke-width:8.64"/>
	<line x1="3482.11" y1="2846.25" x2="3482.11" y2="2841.42" style="stroke:#303030;stroke-width:8.64"/>
	<line x1="3482.11" y1="2807.07" x2="3482.11" y2="2802.05" style="stroke:#303030;stroke-width:8.64"/>
	<line x1="3482.11" y1="2767.89" x2="3482.11" y2="2762.87" style="stroke:#303030;stroke-width:8.64"/>
	<line x1="3482.11" y1="2728.51" x2="3482.11" y2="2723.69" style="stroke:#303030;stroke-width:8.64"/>
	<line x1="3482.11" y1="2689.33" x2="3482.11" y2="2684.32" style="stroke:#303030;stroke-width:8.64"/>
	<line x1="3482.11" y1="2650.15" x2="3482.11" y2="2645.14" style="stroke:#303030;stroke-width:8.64"/>
	<line x1="3482.11" y1="2610.78" x2="3482.11" y2="2605.96" style="stroke:#303030;stroke-width:8.64"/>
	<line x1="3482.11" y1="2571.60" x2="3482.11" y2="2566.58" style="stroke:#303030;stroke-width:8.64"/>
	<line x1="3482.11" y1="2532.42" x2="3482.11" y2="2527.40" style="stroke:#303030;stroke-width:8.64"/>
	<line x1="3482.11" y1="2493.05" x2="3482.11" y2="2488.22" style="stroke:#303030;stroke-width:8.64"/>
	<line x1="3482.11" y1="2453.87" x2="3482.11" y2="2448.85" style="stroke:#303030;stroke-width:8.64"/>
	<line x1="3482.11" y1="2414.69" x2="3482.11" y2="2409.67" style="stroke:#303030;stroke-width:8.64"/>
	<line x1="3482.11" y1="2375.32" x2="3482.11" y2="2370.49" style="stroke:#303030;stroke-width:8.64"/>
	<line x1="3482.11" y1="2336.14" x2="3482.11" y2="2331.12" style="stroke:#303030;stroke-width:8.64"/>
	<line x1="3482.11" y1="2296.96" x2="3482.11" y2="2291.94" style="stroke:#303030;stroke-width:8.64"/>
	<line x1="3482.11" y1="2257.58" x2="3482.11" y2="2252.76" style="stroke:#303030;stroke-width:8.64"/>
	<line x1="3482.11" y1="2218.40" x2="3482.11" y2="2213.38" style="stroke:#303030;stroke-width:8.64"/>
	<line x1="3482.11" y1="2179.22" x2="3482.11" y2="2174.20" style="stroke:#303030;stroke-width:8.64"/>
	<line x1="3482.11" y1="2139.85" x2="3482.11" y2="2135.02" style="stroke:#303030;stroke-width:8.64"/>
	<line x1="3482.11" y1="2100.67" x2="3482.11" y2="2095.84" style="stroke:#303030;stroke-width:8.64"/>
	<line x1="3482.11" y1="2061.49" x2="3482.11" y2="2056.47" style="stroke:#303030;stroke-width:8.64"/>
	<line x1="3482.11" y1="2022.12" x2="3482.11" y2="2017.29" style="stroke:#303030;stroke-width:8.64"/>
	<line x1="3482.11" y1="1982.94" x2="3482.11" y2="1978.11" style="stroke:#303030;stroke-width:8.64"/>
	<line x1="3482.11" y1="1943.76" x2="3482.11" y2="1938.74" style="stroke:#303030;stroke-width:8.64"/>
	<line x1="3482.11" y1="1904.38" x2="3482.11" y2="1899.56" style="stroke:#303030;stroke-width:8.64"/>
	<line x1="3482.11" y1="1865.20" x2="3482.11" y2="1860.38" style="stroke:#303030;stroke-width:8.64"/>
	<line x1="3482.11" y1="1826.02" x2="3482.11" y2="1821.00" style="stroke:#303030;stroke-width:8.64"/>
	<line x1="3482.11" y1="1786.84" x2="3482.11" y2="1781.82" style="stroke:#303030;stroke-width:8.64"/>
	<line x1="3482.11" y1="1747.47" x2="3482.11" y2="1742.64" style="stroke:#303030;stroke-width:8.64"/>
	<line x1="3482.11" y1="1708.29" x2="3482.11" y2="1703.27" style="stroke:#303030;stroke-width:8.64"/>
	<line x1="3482.11" y1="1669.11" x2="3482.11" y2="1664.09" style="stroke:#303030;stroke-width:8.64"/>
	<line x1="3482.11" y1="1629.74" x2="3482.11" y2="1624.91" style="stroke:#303030;stroke-width:8.64"/>
	<line x1="3482.11" y1="1590.56" x2="3482.11" y2="1585.54" style="stroke:#303030;stroke-width:8.64"/>
	<line x1="3482.11" y1="1551.38" x2="3482.11" y2="1546.36" style="stroke:#303030;stroke-width:8.64"/>
	<line x1="3482.11" y1="1512.00" x2="3482.11" y2="1507.18" style="stroke:#303030;stroke-width:8.64"/>
	<line x1="3482.11" y1="1472.82" x2="3482.11" y2="1467.80" style="stroke:#303030;stroke-width:8.64"/>
	<line x1="3482.11" y1="1433.64" x2="3482.11" y2="1428.62" style="stroke:#303030;stroke-width:8.64"/>
	<line x1="3482.11" y1="1394.27" x2="3482.11" y2="1389.44" style="stroke:#303030;stroke-width:8.64"/>
	<line x1="3482.11" y1="1355.09" x2="3482.11" y2="1350.07" style="stroke:#303030;stroke-width:8.64"/>
	<line x1="3482.11" y1="1315.91" x2="3482.11" y2="1310.89" style="stroke:#303030;stroke-width:8.64"/>
	<line x1="3482.11" y1="1276.54" x2="3482.11" y2="1271.71" style="stroke:#303030;stroke-width:8.64"/>
	<line x1="3482.11" y1="1237.36" x2="3482.11" y2="1232.34" style="stroke:#303030;stroke-width:8.64"/>
	<line x1="3482.11" y1="1198.18" x2="3482.11" y2="1193.16" style="stroke:#303030;stroke-width:8.64"/>
	<line x1="3482.11" y1="1158.80" x2="3482.11" y2="1153.98" style="stroke:#303030;stroke-width:8.64"/>
	<line x1="3482.11" y1="1119.62" x2="3482.11" y2="1114.61" style="stroke:#303030;stroke-width:8.64"/>
	<line x1="3482.11" y1="1080.44" x2="3482.11" y2="1075.43" style="stroke:#303030;stroke-width:8.64"/>
	<line x1="3482.11" y1="1041.07" x2="3482.11" y2="1036.25" style="stroke:#303030;stroke-width:8.64"/>
	<line x1="3482.11" y1="1001.89" x2="3482.11" y2="996.87" style="stroke:#303030;stroke-width:8.64"/>
	<line x1="3482.11" y1="962.71" x2="3482.11" y2="957.69" style="stroke:#303030;stroke-width:8.64"/>
	<line x1="3482.11" y1="923.34" x2="3482.11" y2="918.51" style="stroke:#303030;stroke-width:8.64"/>
	<line x1="3482.11" y1="884.16" x2="3482.11" y2="879.14" style="stroke:#303030;stroke-width:8.64"/>
	<line x1="3482.11" y1="844.98" x2="3482.11" y2="839.96" style="stroke:#303030;stroke-width:8.64"/>
	<line x1="3482.11" y1="805.60" x2="3482.11" y2="800.78" style="stroke:#303030;stroke-width:8.64"/>
	<line x1="3482.11" y1="766.42" x2="3482.11" y2="761.60" style="stroke:#303030;stroke-width:8.64"/>
	<line x1="3482.11" y1="727.24" x2="3482.11" y2="722.23" style="stroke:#303030;stroke-width:8.64"/>
	<line x1="3482.11" y1="687.87" x2="3482.11" y2="683.05" style="stroke:#303030;stroke-width:8.64"/>
	<line x1="3482.11" y1="648.69" x2="3482.11" y2="643.87" style="stroke:#303030;stroke-width:8.64"/>
	<line x1="3482.11" y1="609.51" x2="3482.11" y2="604.49" style="stroke:#303030;stroke-width:8.64"/>
	<line x1="3482.11" y1="570.33" x2="3482.11" y2="565.31" style="stroke:#303030;stroke-width:8.64"/>
	<line x1="3381.36" y1="1021.58" x2="3225.22" y2="1021.58" style="stroke:#606060;stroke-width:8.64"/>
	<line x1="3316.13" y1="1202.81" x2="2812.20" y2="1202.81" style="stroke:#606060;stroke-width:8.64"/>
	<line x1="3913.65" y1="1383.85" x2="3671.83" y2="1383.85" style="stroke:#606060;stroke-width:8.64"/>
	<line x1="3797.47" y1="1564.89" x2="3681.28" y2="1564.89" style="stroke:#606060;stroke-width:8.64"/>
	<line x1="3747.67" y1="1746.12" x2="3615.08" y2="1746.12" style="stroke:#606060;stroke-width:8.64"/>
	<line x1="3598.29" y1="1927.16" x2="3363.41" y2="1927.16" style="stroke:#606060;stroke-width:8.64"/>
	<line x1="4029.84" y1="2108.39" x2="3860.39" y2="2108.39" style="stroke:#606060;stroke-width:8.64"/>
	<line x1="3614.89" y1="2289.43" x2="3151.30" y2="2289.43" style="stroke:#606060;stroke-width:8.64"/>
	<line x1="4013.24" y1="2470.47" x2="3876.02" y2="2470.47" style="stroke:#606060;stroke-width:8.64"/>
	<line x1="3515.30" y1="2651.70" x2="3341.99" y2="2651.70" style="stroke:#606060;stroke-width:8.64"/>
	<line x1="3225.22" y1="1021.58" x2="3225.22" y2="1021.58" stroke-linecap="round" style="stroke:#606060;stroke-width:8.64"/>
	<line x1="3225.22" y1="1021.58" x2="3225.22" y2="1021.58" stroke-linecap="round" style="stroke:#606060;stroke-width:8.64"/>
	<line x1="2812.20" y1="1202.81" x2="2812.20" y2="1202.81" stroke-linecap="round" style="stroke:#606060;stroke-width:8.64"/>
	<line x1="2812.20" y1="1202.81" x2="2812.20" y2="1202.81" stroke-linecap="round" style="stroke:#606060;stroke-width:8.64"/>
	<line x1="3671.83" y1="1383.85" x2="3671.83" y2="1383.85" stroke-linecap="round" style="stroke:#606060;stroke-width:8.64"/>
	<line x1="3671.83" y1="1383.85" x2="3671.83" y2="1383.85" stroke-linecap="round" style="stroke:#606060;stroke-width:8.64"/>
	<line x1="3681.28" y1="1564.89" x2="3681.28" y2="1564.89" stroke-linecap="round" style="stroke:#606060;stroke-width:8.64"/>
	<line x1="3681.28" y1="1564.89" x2="3681.28" y2="1564.89" stroke-linecap="round" style="stroke:#606060;stroke-width:8.64"/>
	<line x1="3615.08" y1="1746.12" x2="3615.08" y2="1746.12" stroke-linecap="round" style="stroke:#606060;stroke-width:8.64"/>
	<line x1="3615.08" y1="1746.12" x2="3615.08" y2="1746.12" stroke-linecap="round" style="stroke:#606060;stroke-width:8.64"/>
	<line x1="3363.41" y1="1927.16" x2="3363.41" y2="1927.16" stroke-linecap="round" style="stroke:#606060;stroke-width:8.64"/>
	<line x1="3363.41" y1="1927.16" x2="3363.41" y2="1927.16" stroke-linecap="round" style="stroke:#606060;stroke-width:8.64"/>
	<line x1="3860.39" y1="2108.39" x2="3860.39" y2="2108.39" stroke-linecap="round" style="stroke:#606060;stroke-width:8.64"/>
	<line x1="3860.39" y1="2108.39" x2="3860.39" y2="2108.39" stroke-linecap="round" style="stroke:#606060;stroke-width:8.64"/>
	<line x1="3151.30" y1="2289.43" x2="3151.30" y2="2289.43" stroke-linecap="round" style="stroke:#606060;stroke-width:8.64"/>
	<line x1="3151.30" y1="2289.43" x2="3151.30" y2="2289.43" stroke-linecap="round" style="stroke:#606060;stroke-width:8.64"/>
	<line x1="3876.02" y1="2470.47" x2="3876.02" y2="2470.47" stroke-linecap="round" style="stroke:#606060;stroke-width:8.64"/>
	<line x1="3876.02" y1="2470.47" x2="3876.02" y2="2470.47" stroke-linecap="round" style="stroke:#606060;stroke-width:8.64"/>
	<line x1="3341.99" y1="2651.70" x2="3341.99" y2="2651.70" stroke-linecap="round" style="stroke:#606060;stroke-width:8.64"/>
	<line x1="3341.99" y1="2651.70" x2="3341.99" y2="2651.70" stroke-linecap="round" style="stroke:#606060;stroke-width:8.64"/>
	<line x1="2985.71" y1="840.54" x2="2652.21" y2="840.54" style="stroke:#606060;stroke-width:8.64"/>
	<line x1="2652.21" y1="840.54" x2="2696.98" y2="816.03" stroke-linecap="round" style="stroke:#606060;stroke-width:8.64"/>
	<line x1="2652.21" y1="840.54" x2="2696.98" y2="865.05" stroke-linecap="round" style="stroke:#606060;stroke-width:8.64"/>
	<line x1="2985.71" y1="840.54" x2="3322.50" y2="840.54" style="stroke:#606060;stroke-width:8.64"/>
	<line x1="3381.36" y1="1021.58" x2="3537.50" y2="1021.58" style="stroke:#606060;stroke-width:8.64"/>
	<line x1="3316.13" y1="1202.81" x2="3820.05" y2="1202.81" style="stroke:#606060;stroke-width:8.64"/>
	<line x1="3913.65" y1="1383.85" x2="4155.48" y2="1383.85" style="stroke:#606060;stroke-width:8.64"/>
	<line x1="3797.47" y1="1564.89" x2="3913.46" y2="1564.89" style="stroke:#606060;stroke-width:8.64"/>
	<line x1="3747.67" y1="1746.12" x2="3880.27" y2="1746.12" style="stroke:#606060;stroke-width:8.64"/>
	<line x1="3598.29" y1="1927.16" x2="3833.17" y2="1927.16" style="stroke:#606060;stroke-width:8.64"/>
	<line x1="4029.84" y1="2108.39" x2="4199.29" y2="2108.39" style="stroke:#606060;stroke-width:8.64"/>
	<line x1="3614.89" y1="2289.43" x2="4078.48" y2="2289.43" style="stroke:#606060;stroke-width:8.64"/>
	<line x1="4013.24" y1="2470.47" x2="4150.47" y2="2470.47" style="stroke:#606060;stroke-width:8.64"/>
	<line x1="3515.30" y1="2651.70" x2="3688.62" y2="2651.70" style="stroke:#606060;stroke-width:8.64"/>
	<line x1="3322.50" y1="840.54" x2="3322.50" y2="840.54" stroke-linecap="round" style="stroke:#606060;stroke-width:8.64"/>
	<line x1="3322.50" y1="840.54" x2="3322.50" y2="840.54" stroke-linecap="round" style="stroke:#606060;stroke-width:8.64"/>
	<line x1="3537.50" y1="1021.58" x2="3537.50" y2="1021.58" stroke-linecap="round" style="stroke:#606060;stroke-width:8.64"/>
	<line x1="3537.50" y1="1021.58" x2="3537.50" y2="1021.58" stroke-linecap="round" style="stroke:#606060;stroke-width:8.64"/>
	<line x1="3820.05" y1="1202.81" x2="3820.05" y2="1202.81" stroke-linecap="round" style="stroke:#606060;stroke-width:8.64"/>
	<line x1="3820.05" y1="1202.81" x2="3820.05" y2="1202.81" stroke-linecap="round" style="stroke:#606060;stroke-width:8.64"/>
	<line x1="4155.48" y1="1383.85" x2="4155.48" y2="1383.85" stroke-linecap="round" style="stroke:#606060;stroke-width:8.64"/>
	<line x1="4155.48" y1="1383.85" x2="4155.48" y2="1383.85" stroke-linecap="round" style="stroke:#606060;stroke-width:8.64"/>
	<line x1="3913.46" y1="1564.89" x2="3913.46" y2="1564.89" stroke-linecap="round" style="stroke:#606060;stroke-width:8.64"/>
	<line x1="3913.46" y1="1564.89" x2="3913.46" y2="1564.89" stroke-linecap="round" style="stroke:#606060;stroke-width:8.64"/>
	<line x1="3880.27" y1="1746.12" x2="3880.27" y2="1746.12" stroke-linecap="round" style="stroke:#606060;stroke-width:8.64"/>
	<line x1="3880.27" y1="1746.12" x2="3880.27" y2="1746.12" stroke-linecap="round" style="stroke:#606060;stroke-width:8.64"/>
	<line x1="3833.17" y1="1927.16" x2="3833.17" y2="1927.16" stroke-linecap="round" style="stroke:#606060;stroke-width:8.64"/>
	<line x1="3833.17" y1="1927.16" x2="3833.17" y2="1927.16" stroke-linecap="round" style="stroke:#606060;stroke-width:8.64"/>
	<line x1="4199.29" y1="2108.39" x2="4199.29" y2="2108.39" stroke-linecap="round" style="stroke:#606060;stroke-width:8.64"/>
	<line x1="4199.29" y1="2108.39" x2="4199.29" y2="2108.39" stroke-linecap="round" style="stroke:#606060;stroke-width:8.64"/>
	<line x1="4078.48" y1="2289.43" x2="4078.48" y2="2289.43" stroke-linecap="round" style="stroke:#606060;stroke-width:8.64"/>
	<line x1="4078.48" y1="2289.43" x2="4078.48" y2="2289.43" stroke-linecap="round" style="stroke:#606060;stroke-width:8.64"/>
	<line x1="4150.47" y1="2470.47" x2="4150.47" y2="2470.47" stroke-linecap="round" style="stroke:#606060;stroke-width:8.64"/>
	<line x1="4150.47" y1="2470.47" x2="4150.47" y2="2470.47" stroke-linecap="round" style="stroke:#606060;stroke-width:8.64"/>
	<line x1="3688.62" y1="2651.70" x2="3688.62" y2="2651.70" stroke-linecap="round" style="stroke:#606060;stroke-width:8.64"/>
	<line x1="3688.62" y1="2651.70" x2="3688.62" y2="2651.70" stroke-linecap="round" style="stroke:#606060;stroke-width:8.64"/>
	<rect x="2933.33" y="788.16" width="104.75" height="104.76" style="fill:#606060"/>
	<rect x="2937.65" y="792.48" width="96.11" height="96.12" style="fill:none;stroke:#606060;stroke-width:8.64"/>
	<rect x="3322.81" y="963.41" width="116.72" height="116.72" style="fill:#606060"/>
	<rect x="3327.13" y="967.73" width="108.08" height="108.08" style="fill:none;stroke:#606060;stroke-width:8.64"/>
	<rect x="3270.12" y="1156.99" width="91.63" height="91.63" style="fill:#606060"/>
	<rect x="3274.44" y="1161.31" width="82.99" height="82.99" style="fill:none;stroke:#606060;stroke-width:8.64"/>
	<rect x="3857.61" y="1328.19" width="111.70" height="111.70" style="fill:#606060"/>
	<rect x="3861.93" y="1332.51" width="103.06" height="103.06" style="fill:none;stroke:#606060;stroke-width:8.64"/>
	<rect x="3737.95" y="1505.75" width="118.65" height="118.65" style="fill:#606060"/>
	<rect x="3742.27" y="1510.07" width="110.01" height="110.01" style="fill:none;stroke:#606060;stroke-width:8.64"/>
	<rect x="3688.54" y="1687.18" width="117.88" height="117.88" style="fill:#606060"/>
	<rect x="3692.86" y="1691.50" width="109.24" height="109.24" style="fill:none;stroke:#606060;stroke-width:8.64"/>
	<rect x="3542.06" y="1871.31" width="112.09" height="112.09" style="fill:#606060"/>
	<rect x="3546.38" y="1875.62" width="103.45" height="103.45" style="fill:none;stroke:#606060;stroke-width:8.64"/>
	<rect x="3971.67" y="2050.41" width="115.95" height="115.95" style="fill:#606060"/>
	<rect x="3975.99" y="2054.73" width="107.31" height="107.31" style="fill:none;stroke:#606060;stroke-width:8.64"/>
	<rect x="3567.34" y="2242.07" width="94.72" height="94.72" style="fill:#606060"/>
	<rect x="3571.66" y="2246.39" width="86.08" height="86.08" style="fill:none;stroke:#606060;stroke-width:8.64"/>
	<rect x="3954.11" y="2411.72" width="117.88" height="117.88" style="fill:#606060"/>
	<rect x="3958.43" y="2416.04" width="109.24" height="109.24" style="fill:none;stroke:#606060;stroke-width:8.64"/>
	<rect x="3457.14" y="2593.72" width="115.95" height="115.95" style="fill:#606060"/>
	<rect x="3461.46" y="2598.04" width="107.31" height="107.31" style="fill:none;stroke:#606060;stroke-width:8.64"/>
	<defs>
		<path id="path_eucSZcTO" d="M3515.11 2651.70 M3471.49 2832.74 L3654.46 2885.24 L3837.42 2832.74 L3654.46 2780.24 Z" stroke-linejoin="round"/>
	</defs>
	<defs>
		<clipPath id="clipPath_XUzjaJKR">
			<use xlink:href="#path_eucSZcTO"/>
		</clipPath>
	</defs>
	<use xlink:href="#path_eucSZcTO" style="stroke:none;fill:#A0A0A0"/>
	<use xlink:href="#path_eucSZcTO" style="fill:none;stroke:#A0A0A0;stroke-width:17.28" clip-path="url(#clipPath_XUzjaJKR)"/>
	<defs>
		<path id="path_QsqMXzvM" d="M3837.42 2780.24 M3471.49 3543.00 L3654.46 3595.30 L3837.42 3543.00 L3654.46 3490.50 Z" stroke-linejoin="round"/>
	</defs>
	<defs>
		<clipPath id="clipPath_mKCzOVFy">
			<use xlink:href="#path_QsqMXzvM"/>
		</clipPath>
	</defs>
	<use xlink:href="#path_QsqMXzvM" style="stroke:none;fill:#808080"/>
	<use xlink:href="#path_QsqMXzvM" style="fill:none;stroke:#808080;stroke-width:17.28" clip-path="url(#clipPath_mKCzOVFy)"/>
	<line x1="2652.21" y1="4415.96" x2="4312.01" y2="4415.96" style="stroke:#000000;stroke-width:5.76"/>
	<line x1="2652.21" y1="4415.96" x2="2652.21" y2="4456.10" style="stroke:#000000;stroke-width:5.76"/>
	<text x="2652.21" y="4552.90" style="font-family:'Helvetica';font-size:110.01px;fill:#000000" text-anchor="middle">0</text>
	<line x1="3067.16" y1="4415.96" x2="3067.16" y2="4456.10" style="stroke:#000000;stroke-width:5.76"/>
	<text x="3067.16" y="4552.90" style="font-family:'Helvetica';font-size:110.01px;fill:#000000" text-anchor="middle">.25</text>
	<line x1="3482.11" y1="4415.96" x2="3482.11" y2="4456.10" style="stroke:#000000;stroke-width:5.76"/>
	<text x="3482.11" y="4552.90" style="font-family:'Helvetica';font-size:110.01px;fill:#000000" text-anchor="middle">.5</text>
	<line x1="3897.06" y1="4415.96" x2="3897.06" y2="4456.10" style="stroke:#000000;stroke-width:5.76"/>
	<text x="3897.06" y="4552.90" style="font-family:'Helvetica';font-size:110.01px;fill:#000000" text-anchor="middle">.75</text>
	<line x1="4312.01" y1="4415.96" x2="4312.01" y2="4456.10" style="stroke:#000000;stroke-width:5.76"/>
	<text x="4312.01" y="4552.90" style="font-family:'Helvetica';font-size:110.01px;fill:#000000" text-anchor="middle">1</text>
	<text x="3482.11" y="4665.92" style="font-family:'Helvetica';font-size:99.97px;fill:#000000" text-anchor="middle">6-month PFS</text>
	<text x="4985.19" y="501.33" style="font-family:'Helvetica';font-size:110.01px;fill:#000000" text-anchor="middle">with 95% CI</text>
	<text x="4985.19" y="351.37" style="font-family:'Helvetica';font-size:110.01px;fill:#000000" text-anchor="middle">Effect size</text>
	<text x="4749.34" y="879.09" style="font-family:'Helvetica';font-size:110.01px;fill:#000000" text-anchor="end">0.2010 [</text>
	<text x="4749.34" y="1060.13" style="font-family:'Helvetica';font-size:110.01px;fill:#000000" text-anchor="end">0.4393 [</text>
	<text x="4749.34" y="1241.36" style="font-family:'Helvetica';font-size:110.01px;fill:#000000" text-anchor="end">0.4000 [</text>
	<text x="4749.34" y="1422.40" style="font-family:'Helvetica';font-size:110.01px;fill:#000000" text-anchor="end">0.7600 [</text>
	<text x="4749.34" y="1603.44" style="font-family:'Helvetica';font-size:110.01px;fill:#000000" text-anchor="end">0.6900 [</text>
	<text x="4749.34" y="1784.67" style="font-family:'Helvetica';font-size:110.01px;fill:#000000" text-anchor="end">0.6600 [</text>
	<text x="4749.34" y="1965.71" style="font-family:'Helvetica';font-size:110.01px;fill:#000000" text-anchor="end">0.5700 [</text>
	<text x="4749.34" y="2146.94" style="font-family:'Helvetica';font-size:110.01px;fill:#000000" text-anchor="end">0.8300 [</text>
	<text x="4749.34" y="2327.98" style="font-family:'Helvetica';font-size:110.01px;fill:#000000" text-anchor="end">0.5800 [</text>
	<text x="4749.34" y="2509.02" style="font-family:'Helvetica';font-size:110.01px;fill:#000000" text-anchor="end">0.8200 [</text>
	<text x="4749.34" y="2690.25" style="font-family:'Helvetica';font-size:110.01px;fill:#000000" text-anchor="end">0.5200 [</text>
	<text x="4749.34" y="2871.29" style="font-family:'Helvetica';font-size:110.01px;fill:#000000" text-anchor="end">0.6039 [</text>
	<text x="4749.34" y="3581.55" style="font-family:'Helvetica';font-size:110.01px;fill:#000000" text-anchor="end">0.6039 [</text>
	<text x="5193.24" y="879.09" style="font-family:'Helvetica';font-size:110.01px;fill:#000000" text-anchor="end">-0.0018,</text>
	<text x="5193.24" y="1060.13" style="font-family:'Helvetica';font-size:110.01px;fill:#000000" text-anchor="end">0.3453,</text>
	<text x="5193.24" y="1241.36" style="font-family:'Helvetica';font-size:110.01px;fill:#000000" text-anchor="end">0.0964,</text>
	<text x="5193.24" y="1422.40" style="font-family:'Helvetica';font-size:110.01px;fill:#000000" text-anchor="end">0.6143,</text>
	<text x="5193.24" y="1603.44" style="font-family:'Helvetica';font-size:110.01px;fill:#000000" text-anchor="end">0.6201,</text>
	<text x="5193.24" y="1784.67" style="font-family:'Helvetica';font-size:110.01px;fill:#000000" text-anchor="end">0.5801,</text>
	<text x="5193.24" y="1965.71" style="font-family:'Helvetica';font-size:110.01px;fill:#000000" text-anchor="end">0.4285,</text>
	<text x="5193.24" y="2146.94" style="font-family:'Helvetica';font-size:110.01px;fill:#000000" text-anchor="end">0.7279,</text>
	<text x="5193.24" y="2327.98" style="font-family:'Helvetica';font-size:110.01px;fill:#000000" text-anchor="end">0.3007,</text>
	<text x="5193.24" y="2509.02" style="font-family:'Helvetica';font-size:110.01px;fill:#000000" text-anchor="end">0.7373,</text>
	<text x="5193.24" y="2690.25" style="font-family:'Helvetica';font-size:110.01px;fill:#000000" text-anchor="end">0.4156,</text>
	<text x="5193.24" y="2871.29" style="font-family:'Helvetica';font-size:110.01px;fill:#000000" text-anchor="end">0.4936,</text>
	<text x="5193.24" y="3581.55" style="font-family:'Helvetica';font-size:110.01px;fill:#000000" text-anchor="end">0.4936,</text>
	<text x="5618.42" y="879.09" style="font-family:'Helvetica';font-size:110.01px;fill:#000000" text-anchor="end">0.4038]</text>
	<text x="5618.42" y="1060.13" style="font-family:'Helvetica';font-size:110.01px;fill:#000000" text-anchor="end">0.5333]</text>
	<text x="5618.42" y="1241.36" style="font-family:'Helvetica';font-size:110.01px;fill:#000000" text-anchor="end">0.7036]</text>
	<text x="5618.42" y="1422.40" style="font-family:'Helvetica';font-size:110.01px;fill:#000000" text-anchor="end">0.9057]</text>
	<text x="5618.42" y="1603.44" style="font-family:'Helvetica';font-size:110.01px;fill:#000000" text-anchor="end">0.7599]</text>
	<text x="5618.42" y="1784.67" style="font-family:'Helvetica';font-size:110.01px;fill:#000000" text-anchor="end">0.7399]</text>
	<text x="5618.42" y="1965.71" style="font-family:'Helvetica';font-size:110.01px;fill:#000000" text-anchor="end">0.7115]</text>
	<text x="5618.42" y="2146.94" style="font-family:'Helvetica';font-size:110.01px;fill:#000000" text-anchor="end">0.9321]</text>
	<text x="5618.42" y="2327.98" style="font-family:'Helvetica';font-size:110.01px;fill:#000000" text-anchor="end">0.8593]</text>
	<text x="5618.42" y="2509.02" style="font-family:'Helvetica';font-size:110.01px;fill:#000000" text-anchor="end">0.9027]</text>
	<text x="5618.42" y="2690.25" style="font-family:'Helvetica';font-size:110.01px;fill:#000000" text-anchor="end">0.6244]</text>
	<text x="5618.42" y="2871.29" style="font-family:'Helvetica';font-size:110.01px;fill:#000000" text-anchor="end">0.7141]</text>
	<text x="5618.42" y="3581.55" style="font-family:'Helvetica';font-size:110.01px;fill:#000000" text-anchor="end">0.7141]</text>
	<text x="6001.72" y="879.09" style="font-family:'Helvetica';font-size:110.01px;fill:#000000" text-anchor="end">7.98</text>
	<text x="6001.72" y="1060.13" style="font-family:'Helvetica';font-size:110.01px;fill:#000000" text-anchor="end">10.13</text>
	<text x="6001.72" y="1241.36" style="font-family:'Helvetica';font-size:110.01px;fill:#000000" text-anchor="end">5.98</text>
	<text x="6001.72" y="1422.40" style="font-family:'Helvetica';font-size:110.01px;fill:#000000" text-anchor="end">9.18</text>
	<text x="6001.72" y="1603.44" style="font-family:'Helvetica';font-size:110.01px;fill:#000000" text-anchor="end">10.47</text>
	<text x="6001.72" y="1784.67" style="font-family:'Helvetica';font-size:110.01px;fill:#000000" text-anchor="end">10.34</text>
	<text x="6001.72" y="1965.71" style="font-family:'Helvetica';font-size:110.01px;fill:#000000" text-anchor="end">9.26</text>
	<text x="6001.72" y="2146.94" style="font-family:'Helvetica';font-size:110.01px;fill:#000000" text-anchor="end">9.99</text>
	<text x="6001.72" y="2327.98" style="font-family:'Helvetica';font-size:110.01px;fill:#000000" text-anchor="end">6.42</text>
	<text x="6001.72" y="2509.02" style="font-family:'Helvetica';font-size:110.01px;fill:#000000" text-anchor="end">10.30</text>
	<text x="6001.72" y="2690.25" style="font-family:'Helvetica';font-size:110.01px;fill:#000000" text-anchor="end">9.96</text>
	<text x="5877.24" y="501.33" style="font-family:'Helvetica';font-size:110.01px;fill:#000000" text-anchor="middle">(%)</text>
	<text x="5877.24" y="351.37" style="font-family:'Helvetica';font-size:110.01px;fill:#000000" text-anchor="middle">Weight</text>
	<line x1="79.90" y1="558.75" x2="6095.91" y2="558.75" style="stroke:#000000;stroke-width:8.64"/>
	<text x="39.95" y="4849.59" style="font-family:'Helvetica';font-size:110.01px;fill:#000000">Random-effects REML model</text>
	<text x="3088.00" y="155.18" style="font-family:'Helvetica';font-size:139.93px;fill:#000000" text-anchor="middle">Figure X Effect size of CAR-T therapy for cancers</text>
</svg>
